<?xml version="1.0" standalone="no"?>
<!DOCTYPE svg PUBLIC "-//W3C//DTD SVG 20010904//EN"
 "http://www.w3.org/TR/2001/REC-SVG-20010904/DTD/svg10.dtd">
<svg version="1.0" xmlns="http://www.w3.org/2000/svg"
 width="81.000000pt" height="81.000000pt" viewBox="0 0 81.000000 81.000000"
 preserveAspectRatio="xMidYMid meet">

<g transform="translate(0.000000,81.000000) scale(0.100000,-0.100000)"
fill="#32733c" stroke="none">
<path d="M229 747 c-27 -21 -40 -56 -34 -91 5 -27 3 -36 -13 -47 -10 -8 -29
-30 -41 -49 -20 -33 -21 -48 -21 -250 0 -118 5 -222 10 -230 7 -12 35 -15 145
-15 110 0 138 3 145 15 5 8 10 111 10 229 0 210 0 215 -25 256 -13 24 -32 45
-41 49 -13 5 -15 14 -10 41 11 58 -24 104 -79 104 -16 0 -37 -5 -46 -12z m96
-51 c6 -19 6 -33 -3 -46 -17 -28 -15 -34 18 -53 17 -10 37 -31 45 -48 l16 -29
-126 0 -126 0 16 30 c8 16 29 37 45 45 33 17 36 26 19 54 -16 25 -3 70 24 80
31 12 60 -2 72 -33z m73 -403 l-3 -198 -120 0 -120 0 -3 58 -3 57 66 0 c51 0
65 3 65 15 0 12 -14 15 -65 15 l-65 0 0 55 0 55 65 0 c37 0 65 4 65 10 0 6
-28 10 -65 10 l-65 0 0 60 0 60 125 0 125 0 -2 -197z"/>
<path d="M548 744 c-62 -33 -78 -141 -32 -210 l26 -38 -11 -186 c-13 -204 -9
-234 33 -250 34 -12 80 5 94 34 7 16 7 81 -2 219 -8 144 -8 198 0 201 18 7 44
72 44 111 0 50 -27 103 -61 120 -35 19 -56 18 -91 -1z m96 -39 c13 -14 26 -39
30 -56 6 -34 -15 -97 -40 -116 -14 -10 -15 -33 -4 -211 14 -222 10 -246 -37
-240 -46 5 -48 21 -36 234 l12 198 -24 28 c-30 36 -39 79 -25 123 21 65 83 85
124 40z"/>
</g>
</svg>
