<?xml version="1.0" standalone="no"?>
<!DOCTYPE svg PUBLIC "-//W3C//DTD SVG 20010904//EN"
 "http://www.w3.org/TR/2001/REC-SVG-20010904/DTD/svg10.dtd">
<svg version="1.0" xmlns="http://www.w3.org/2000/svg"
 width="81.000000pt" height="81.000000pt" viewBox="0 0 81.000000 81.000000"
 preserveAspectRatio="xMidYMid meet">

<g transform="translate(0.000000,81.000000) scale(0.100000,-0.100000)"
fill="#5f0080" stroke="none">
<path d="M144 646 c-66 -29 -94 -96 -70 -167 11 -30 16 -83 16 -166 0 -97 3
-125 16 -137 13 -14 54 -16 288 -16 198 0 275 3 284 12 8 8 12 54 12 138 1 89
5 132 15 150 8 14 14 43 15 66 0 86 -77 146 -160 124 -26 -7 -47 -7 -68 1 -23
8 -41 8 -64 0 -23 -8 -44 -8 -68 -1 -22 6 -47 6 -71 0 -25 -7 -46 -7 -64 0
-33 13 -43 12 -81 -4z m97 -33 c16 -10 35 -32 41 -50 16 -44 40 -45 28 -2 -5
17 -14 37 -19 43 -15 17 -3 26 33 26 41 0 75 -24 92 -66 15 -35 34 -46 34 -19
0 9 -7 29 -15 44 -16 33 -12 41 23 41 37 0 81 -31 94 -67 14 -38 44 -47 33
-10 -4 12 -13 32 -21 43 -16 27 -10 34 30 34 67 0 115 -68 94 -131 -7 -19 -14
-95 -17 -169 l-6 -135 -270 0 -270 0 -5 130 c-3 77 -10 139 -17 152 -27 46 -8
113 38 139 33 18 66 17 100 -3z"/>
</g>
</svg>
