<?xml version="1.0" encoding="UTF-8"?>
<svg version="1.1" xmlns="http://www.w3.org/2000/svg" width="81" height="81">
<path d="M0 0 C11.88 0 23.76 0 36 0 C36 8.86131301 35.76981366 17.24336957 35 26 C36.11242065 26.02187378 36.11242065 26.02187378 37.24731445 26.04418945 C40.60290631 26.11859457 43.95749494 26.21528006 47.3125 26.3125 C48.47974609 26.33505859 49.64699219 26.35761719 50.84960938 26.38085938 C51.96787109 26.41630859 53.08613281 26.45175781 54.23828125 26.48828125 C55.26993408 26.51446533 56.30158691 26.54064941 57.36450195 26.56762695 C60 27 60 27 61.83666992 28.31323242 C63.79484149 31.15247845 63.35601165 33.67722458 63 37 C61.8125 38.875 61.8125 38.875 60 40 C59.195625 40.061875 58.39125 40.12375 57.5625 40.1875 C54.90917038 40.72954899 54.90917038 40.72954899 53.859375 42.765625 C53.17192933 44.19181826 52.5156422 45.6335368 51.89453125 47.08984375 C51 49 51 49 49 51 C51.97 51.33 54.94 51.66 58 52 C58 53.32 58 54.64 58 56 C37.54 56 17.08 56 -4 56 C-4 54.68 -4 53.36 -4 52 C-1.03 52 1.94 52 5 52 C4.87447754 51.1742749 4.74895508 50.3485498 4.61962891 49.49780273 C3.36900334 41.04458761 2.37411835 32.59066304 1.56738281 24.08374023 C1.37276722 22.03904161 1.17103012 19.99512501 0.96875 17.95117188 C0.84242187 16.63826172 0.71609375 15.32535156 0.5859375 13.97265625 C0.4729834 12.79968994 0.3600293 11.62672363 0.24365234 10.41821289 C-0.0033276 6.95331696 0 3.47368722 0 0 Z M4 3 C4 5.64 4 8.28 4 11 C5.07029129 12.29545448 5.07029129 12.29545448 7.59204102 12.11352539 C8.71795654 12.10828857 9.84387207 12.10305176 11.00390625 12.09765625 C12.82631836 12.09282227 12.82631836 12.09282227 14.68554688 12.08789062 C15.96494141 12.07951172 17.24433594 12.07113281 18.5625 12.0625 C20.48739258 12.05573242 20.48739258 12.05573242 22.45117188 12.04882812 C25.63416022 12.03699545 28.81705762 12.02051068 32 12 C32.33 9.03 32.66 6.06 33 3 C23.43 3 13.86 3 4 3 Z M5 15 C5.64056982 27.38434976 6.68664632 39.66977662 8 52 C12.95 52 17.9 52 23 52 C21.824375 50.515 21.824375 50.515 20.625 49 C16.61519059 42.72970313 16.58838612 35.23627112 16 28 C20.95 27.67 25.9 27.34 31 27 C31.33 23.04 31.66 19.08 32 15 C23.09 15 14.18 15 5 15 Z M19 30 C19.83342881 41.87635372 19.83342881 41.87635372 26.5625 50.4375 C31.44390889 52.65632222 35.72357619 52.76276171 41 52 C46.46700501 49.51499772 48.47968196 46.2273263 51 41 C52.44745092 37.14013087 52 34.49516925 52 30 C41.11 30 30.22 30 19 30 Z M56 30 C55.67 32.31 55.34 34.62 55 37 C56.98491642 36.73323796 56.98491642 36.73323796 59 36 C59.33 35.01 59.66 34.02 60 33 C59.34 32.01 58.68 31.02 58 30 C57.34 30 56.68 30 56 30 Z " fill="#5f0080" transform="translate(11,13)"/>
<path d="M0 0 C1.32 0.66 2.64 1.32 4 2 C4.125 9.625 4.125 9.625 3 13 C3.38932856 15.14255793 3.38932856 15.14255793 4 17 C2.68 17.33 1.36 17.66 0 18 C-1.57170996 14.85658007 -1.23175783 11.44228549 -1 8 C-0.67 7.01 -0.34 6.02 0 5 C-0.31478446 3.66216607 -0.64587656 2.32796291 -1 1 C-0.67 0.67 -0.34 0.34 0 0 Z " fill="#5f0080" transform="translate(54,17)"/>
</svg>
