<?xml version="1.0" encoding="UTF-8"?>
<svg version="1.1" xmlns="http://www.w3.org/2000/svg" width="81" height="81">
<path d="M0 0 C2.1640625 0.359375 2.1640625 0.359375 4.7265625 2.171875 C6.1640625 4.359375 6.1640625 4.359375 6.1640625 7.359375 C16.7240625 7.359375 27.2840625 7.359375 38.1640625 7.359375 C38.1640625 8.679375 38.1640625 9.999375 38.1640625 11.359375 C36.8440625 11.359375 35.5240625 11.359375 34.1640625 11.359375 C34.05449219 12.184375 33.94492188 13.009375 33.83203125 13.859375 C32.90212787 20.63330528 31.87141296 27.37952834 30.6640625 34.109375 C30.54571045 34.8003125 30.4273584 35.49125 30.30541992 36.203125 C29.39783884 41.12559866 29.39783884 41.12559866 27.1640625 43.359375 C25.19067383 43.61334229 25.19067383 43.61334229 22.74609375 43.61816406 C21.37457153 43.62762054 21.37457153 43.62762054 19.9753418 43.63726807 C18.98574463 43.6332196 17.99614746 43.62917114 16.9765625 43.625 C15.96311768 43.62691345 14.94967285 43.6288269 13.90551758 43.63079834 C11.76025138 43.63216091 9.61497697 43.62845947 7.46972656 43.62011719 C4.17754678 43.60941882 0.88591272 43.62001019 -2.40625 43.6328125 C-4.48698038 43.63149092 -6.56771041 43.62892855 -8.6484375 43.625 C-9.63803467 43.62904846 -10.62763184 43.63309692 -11.6472168 43.63726807 C-12.56156494 43.63096375 -13.47591309 43.62465942 -14.41796875 43.61816406 C-15.22468018 43.61657288 -16.0313916 43.61498169 -16.86254883 43.61334229 C-18.8359375 43.359375 -18.8359375 43.359375 -20.8359375 41.359375 C-21.52197266 38.80908203 -21.52197266 38.80908203 -22.125 35.6171875 C-22.34414063 34.46863281 -22.56328125 33.32007813 -22.7890625 32.13671875 C-23.12164062 30.32880859 -23.12164062 30.32880859 -23.4609375 28.484375 C-23.69039062 27.28683594 -23.91984375 26.08929688 -24.15625 24.85546875 C-25.8359375 15.92712984 -25.8359375 15.92712984 -25.8359375 11.359375 C-27.1559375 11.359375 -28.4759375 11.359375 -29.8359375 11.359375 C-29.8359375 10.039375 -29.8359375 8.719375 -29.8359375 7.359375 C-23.5659375 7.359375 -17.2959375 7.359375 -10.8359375 7.359375 C-10.5059375 6.039375 -10.1759375 4.719375 -9.8359375 3.359375 C-7.0622701 -0.35851961 -4.36694434 -0.14224574 0 0 Z M-6.8359375 5.359375 C-6.8359375 6.019375 -6.8359375 6.679375 -6.8359375 7.359375 C-3.8659375 7.359375 -0.8959375 7.359375 2.1640625 7.359375 C1.8340625 6.369375 1.5040625 5.379375 1.1640625 4.359375 C-3.01403819 3.17006313 -3.01403819 3.17006313 -6.8359375 5.359375 Z M-21.8359375 11.359375 C-21.22797556 18.04695637 -20.62106407 24.38808791 -19.3359375 30.921875 C-19.20574219 31.61861328 -19.07554688 32.31535156 -18.94140625 33.03320312 C-18.23383952 36.8057839 -18.23383952 36.8057839 -16.8359375 40.359375 C-11.03355726 40.43339464 -5.23145028 40.48791489 0.57128906 40.52416992 C2.54627263 40.53927962 4.52122254 40.55976828 6.49609375 40.58569336 C9.33081356 40.62198119 12.16509076 40.63907916 15 40.65234375 C15.88650238 40.66782761 16.77300476 40.68331146 17.68637085 40.69926453 C18.9174205 40.69960442 18.9174205 40.69960442 20.17333984 40.69995117 C20.89725922 40.70661301 21.62117859 40.71327484 22.36703491 40.72013855 C24.58378232 40.49527086 24.58378232 40.49527086 26.1640625 37.359375 C26.80200723 35.01465082 26.80200723 35.01465082 27.234375 32.39453125 C27.40839844 31.42966797 27.58242187 30.46480469 27.76171875 29.47070312 C27.93574219 28.46458984 28.10976562 27.45847656 28.2890625 26.421875 C28.47082031 25.41962891 28.65257812 24.41738281 28.83984375 23.38476562 C29.5679732 19.2815098 30.1640625 15.54137789 30.1640625 11.359375 C13.0040625 11.359375 -4.1559375 11.359375 -21.8359375 11.359375 Z " fill="#32733c" transform="translate(36.8359375,29.640625)"/>
<path d="M0 0 C0.66 1.32 1.32 2.64 2 4 C-3.90375058 6.06408748 -9.80789977 8.12702949 -15.71240234 10.18896484 C-17.71608989 10.88885442 -19.71967297 11.58904315 -21.72314453 12.28955078 C-52.35716833 23 -52.35716833 23 -55 23 C-55 21.68 -55 20.36 -55 19 C-48.4 16.69 -41.8 14.38 -35 12 C-34.67 9.69 -34.34 7.38 -34 5 C-32.3125 3 -32.3125 3 -30 2 C-26.9375 2.0625 -26.9375 2.0625 -24 3 C-22.515 4.98 -22.515 4.98 -21 7 C-14.07 4.69 -7.14 2.38 0 0 Z M-30 6 C-30.33 7.32 -30.66 8.64 -31 10 C-30.01 10.495 -30.01 10.495 -29 11 C-26.88316159 10.10836423 -26.88316159 10.10836423 -25 9 C-25.66 8.01 -26.32 7.02 -27 6 C-27.99 6 -28.98 6 -30 6 Z " fill="#32733c" transform="translate(65,9)"/>
<path d="M0 0 C4.4297642 0.79102932 5.89210172 1.98974785 8.5 5.625 C9.20338515 9.37638748 8.76523868 11.09452264 7.0625 14.5 C3.80981455 17.19734891 1.76679951 17.35478547 -2.37109375 17.109375 C-4.5 16.625 -4.5 16.625 -7.0625 14.5 C-8.76523868 11.09452264 -9.20338515 9.37638748 -8.5 5.625 C-5.89210172 1.98974785 -4.4297642 0.79102932 0 0 Z M-0.5 3.625 C-2.5995533 4.78184329 -2.5995533 4.78184329 -4.5 6.625 C-5.08350505 9.16790625 -5.08350505 9.16790625 -4.5 11.625 C-1.73011924 13.94043207 -1.73011924 13.94043207 1.125 13.3125 C3.43501965 12.8508486 3.43501965 12.8508486 4.5 11.625 C5.00059916 9.21017587 5.00059916 9.21017587 4.5 6.625 C2.09141286 4.7625562 2.09141286 4.7625562 -0.5 3.625 Z " fill="#32733c" transform="translate(56.5,18.375)"/>
</svg>
