<?xml version="1.0" encoding="UTF-8"?>
<svg version="1.1" xmlns="http://www.w3.org/2000/svg" width="81" height="81">
<path d="M0 0 C5.72283157 4.77721348 9.23303837 9.43518537 10.10546875 16.98828125 C10.50294108 24.24469924 8.747887 29.43774165 4.8203125 35.51953125 C4.1603125 36.17953125 3.5003125 36.83953125 2.8203125 37.51953125 C5.1303125 38.17953125 7.4403125 38.83953125 9.8203125 39.51953125 C10.19056512 47.04800122 10.19056512 47.04800122 8.5612793 49.12295532 C6.42457064 50.83698909 5.38389989 50.89885275 2.671875 50.90771484 C1.42543213 50.92189957 1.42543213 50.92189957 0.15380859 50.93637085 C-0.73999512 50.93029816 -1.63379883 50.92422546 -2.5546875 50.91796875 C-3.93599854 50.92227402 -3.93599854 50.92227402 -5.34521484 50.92666626 C-7.29199844 50.92870756 -9.23880252 50.92317308 -11.18554688 50.91064453 C-14.16843449 50.89459181 -17.14996711 50.91049097 -20.1328125 50.9296875 C-22.0234405 50.92770508 -23.91406765 50.92386143 -25.8046875 50.91796875 C-26.69849121 50.92404144 -27.59229492 50.93011414 -28.51318359 50.93637085 C-29.75962646 50.92218613 -29.75962646 50.92218613 -31.03125 50.90771484 C-31.76166504 50.90532806 -32.49208008 50.90294128 -33.24462891 50.90048218 C-35.73221069 50.41075717 -36.63215341 49.49037158 -38.1796875 47.51953125 C-38.57047306 44.79445327 -38.31585703 42.28831169 -38.1796875 39.51953125 C-35.8696875 38.85953125 -33.5596875 38.19953125 -31.1796875 37.51953125 C-31.60121094 36.91625 -32.02273437 36.31296875 -32.45703125 35.69140625 C-33.27880859 34.49257812 -33.27880859 34.49257812 -34.1171875 33.26953125 C-34.66246094 32.480625 -35.20773438 31.69171875 -35.76953125 30.87890625 C-39.04389917 25.40046241 -39.02646018 19.05763877 -37.56640625 12.95703125 C-35.31885844 6.4619151 -32.0325154 2.16241206 -26.1796875 -1.48046875 C-17.30596559 -5.67083743 -8.14583358 -5.72187095 0 0 Z M-29.890625 6.3046875 C-34.38224545 12.41900319 -35.06777302 18.14236627 -34.1796875 25.51953125 C-32.07909157 30.90683547 -28.23648516 35.63464261 -23.1796875 38.51953125 C-20.15090954 39.1952859 -17.27095156 39.17640152 -14.1796875 39.08203125 C-13.00792969 39.0984668 -13.00792969 39.0984668 -11.8125 39.11523438 C-6.4880747 39.04800678 -3.39925378 38.01026335 0.8203125 34.51953125 C4.97661367 29.55506041 7.07029751 23.94426586 6.703125 17.4453125 C5.43880641 10.87859658 1.52083701 5.51277553 -3.8046875 1.58203125 C-12.92832434 -2.49959576 -22.81417106 -1.0787359 -29.890625 6.3046875 Z M-34.1796875 42.51953125 C-34.1796875 43.83953125 -34.1796875 45.15953125 -34.1796875 46.51953125 C-20.9796875 46.51953125 -7.7796875 46.51953125 5.8203125 46.51953125 C6.1503125 45.19953125 6.4803125 43.87953125 6.8203125 42.51953125 C-6.7096875 42.51953125 -20.2396875 42.51953125 -34.1796875 42.51953125 Z " fill="#32733c" transform="translate(64.1796875,18.48046875)"/>
<path d="M0 0 C3.91820389 1.75643623 5.45708404 2.77129547 7.1875 6.6875 C6.95146099 10.85752249 5.44492186 13.27765039 3.2265625 16.75390625 C1.02107275 20.79262155 0.86409302 25.00207766 0.71875 29.53515625 C0.68136719 30.59283203 0.64398437 31.65050781 0.60546875 32.74023438 C0.57066406 33.83658203 0.53585938 34.93292969 0.5 36.0625 C0.35958077 40.37649071 0.1971992 44.68821347 0 49 C-0.04898437 50.12647949 -0.09796875 51.25295898 -0.1484375 52.41357422 C-0.21289062 53.49268066 -0.27734375 54.57178711 -0.34375 55.68359375 C-0.39724609 56.6573999 -0.45074219 57.63120605 -0.50585938 58.63452148 C-1 61 -1 61 -4 63 C-6.625 62.75 -6.625 62.75 -9 62 C-10.65461477 58.69077047 -10.25997925 54.97970535 -10.359375 51.3359375 C-10.42333415 49.55594807 -10.48847682 47.77600085 -10.5546875 45.99609375 C-10.6555156 43.19199577 -10.74964712 40.38844953 -10.82324219 37.58349609 C-10.89706009 34.87476262 -11.00084206 32.16847476 -11.109375 29.4609375 C-11.12417908 28.63355072 -11.13898315 27.80616394 -11.15423584 26.95370483 C-11.4032104 21.52973422 -12.66664863 18.17381636 -15.88262939 13.78359985 C-17.7605574 10.78596228 -17.58727864 8.39316546 -17 5 C-12.34221862 -0.89985641 -7.08662214 -0.70866221 0 0 Z M-13 6 C-14.342681 8.90841521 -14.342681 8.90841521 -13.00390625 11.26171875 C-12.52824219 12.06222656 -12.05257813 12.86273438 -11.5625 13.6875 C-11.08941406 14.49574219 -10.61632812 15.30398437 -10.12890625 16.13671875 C-9.75636719 16.75160156 -9.38382813 17.36648437 -9 18 C-5.71256453 18.66923762 -5.71256453 18.66923762 -2 18 C0.31374079 15.64704326 1.90884077 13.11435031 3 10 C2.86830358 7.84681756 2.86830358 7.84681756 2 6 C-0.51049798 4.04739046 -2.34979475 3.09753079 -5.5 2.625 C-8.61916926 3.09287539 -10.48535864 4.11401898 -13 6 Z M-8 22 C-7.9063058 26.62681758 -7.80017713 31.2531217 -7.68261719 35.87939453 C-7.64438171 37.45255765 -7.60951934 39.02580658 -7.578125 40.59912109 C-7.53235578 42.86326723 -7.47438239 45.12682547 -7.4140625 47.390625 C-7.40251129 48.09181458 -7.39096008 48.79300415 -7.37905884 49.51544189 C-7.26960094 53.1533497 -6.98155656 55.8990378 -5 59 C-3.42327192 57.42327192 -3.78059389 55.77124971 -3.68359375 53.58203125 C-3.64161865 52.66309082 -3.59964355 51.74415039 -3.55639648 50.79736328 C-3.51716064 49.8123584 -3.4779248 48.82735352 -3.4375 47.8125 C-3.3950415 46.81976074 -3.35258301 45.82702148 -3.30883789 44.80419922 C-3.00233866 37.19783793 -2.88308233 29.61263931 -3 22 C-4.65 22 -6.3 22 -8 22 Z " fill="#32733c" transform="translate(23,9)"/>
<path d="M0 0 C4.15692253 2.45112437 6.60233565 4.63276053 8.73828125 9.05859375 C9.56293855 14.57859713 9.48653181 19.50666665 7.05078125 24.55859375 C6.28765625 25.38359375 5.52453125 26.20859375 4.73828125 27.05859375 C4.03703125 27.82171875 3.33578125 28.58484375 2.61328125 29.37109375 C-1.58384028 31.8346216 -5.42418716 32.36784234 -10.26171875 32.05859375 C-15.649661 30.49286694 -19.16320243 27.76833856 -22.26171875 23.05859375 C-24.23608087 19.10986951 -23.70001568 14.36242608 -23.26171875 10.05859375 C-21.07645533 5.60713124 -18.32226665 2.8697423 -14.26171875 0.05859375 C-9.47048627 -1.53848374 -4.75032512 -1.97725104 0 0 Z M-17.26171875 7.05859375 C-19.3373116 10.67414259 -20.30378213 13.00700916 -20.13671875 17.18359375 C-18.86710551 21.3551801 -17.45685595 24.06833721 -14.07421875 26.87109375 C-10.39881575 28.42293057 -7.15427724 28.73788337 -3.26171875 28.05859375 C1.63262909 25.65759292 3.89357508 23.18277755 5.73828125 18.05859375 C6.32025823 14.06789444 5.944707 12.4345835 3.98828125 8.87109375 C0.66637697 4.5145408 0.66637697 4.5145408 -4.3046875 2.7421875 C-9.74217846 2.45983872 -13.14414401 3.2351315 -17.26171875 7.05859375 Z " fill="#32733c" transform="translate(57.26171875,22.94140625)"/>
</svg>
