<?xml version="1.0" encoding="UTF-8"?>
<svg version="1.1" xmlns="http://www.w3.org/2000/svg" width="81" height="81">
<path d="M0 0 C5.28 0 10.56 0 16 0 C17.26237731 2.52475462 17.09856404 4.31200466 17.0625 7.125 C17.05347656 8.03507813 17.04445312 8.94515625 17.03515625 9.8828125 C17.02355469 10.58148438 17.01195312 11.28015625 17 12 C17.598125 12.26554688 18.19625 12.53109375 18.8125 12.8046875 C25.85547604 16.65317084 29.58006888 24.78466305 32.03710938 32.07885742 C33.24248723 36.37040507 33.28838024 40.49215978 33.265625 44.92578125 C33.26849518 46.16898384 33.26849518 46.16898384 33.27142334 47.43730164 C33.27277651 49.17605903 33.26914111 50.91482682 33.26074219 52.65356445 C33.2499616 55.32200486 33.26070158 57.98978249 33.2734375 60.65820312 C33.27211709 62.35156399 33.26955714 64.04492444 33.265625 65.73828125 C33.26967346 66.53720291 33.27372192 67.33612457 33.27789307 68.15925598 C33.22996616 73.77003384 33.22996616 73.77003384 31 76 C29.02661133 76.25396729 29.02661133 76.25396729 26.58203125 76.25878906 C25.21050903 76.26824554 25.21050903 76.26824554 23.8112793 76.27789307 C22.82168213 76.2738446 21.83208496 76.26979614 20.8125 76.265625 C19.79905518 76.26753845 18.78561035 76.2694519 17.74145508 76.27142334 C15.59618888 76.27278591 13.45091447 76.26908447 11.30566406 76.26074219 C8.01348428 76.25004382 4.72185022 76.26063519 1.4296875 76.2734375 C-0.65104288 76.27211592 -2.73177291 76.26955355 -4.8125 76.265625 C-5.80209717 76.26967346 -6.79169434 76.27372192 -7.8112793 76.27789307 C-9.18280151 76.26843658 -9.18280151 76.26843658 -10.58203125 76.25878906 C-11.38874268 76.25719788 -12.1954541 76.25560669 -13.02661133 76.25396729 C-15 76 -15 76 -17 74 C-17.21249547 71.31934608 -17.30396599 68.74486097 -17.30078125 66.0625 C-17.30506638 65.26779297 -17.3093515 64.47308594 -17.31376648 63.65429688 C-17.31951851 61.96631827 -17.32000363 60.27831488 -17.31567383 58.59033203 C-17.31254612 56.03763854 -17.33584718 53.48614106 -17.36132812 50.93359375 C-17.41261603 38.07816233 -16.00927389 27.56188312 -8 17 C-6.76195632 15.97968997 -5.49152523 14.99700678 -4.1875 14.0625 C-1.67993432 12.15697101 -1.07513914 11.31779437 -0.3359375 8.19140625 C-0.09321465 5.46944289 -0.03332391 2.73256079 0 0 Z M3 3 C3 5.64 3 8.28 3 11 C6.3 11 9.6 11 13 11 C13 8.36 13 5.72 13 3 C9.7 3 6.4 3 3 3 Z M-5.3828125 19.56640625 C-10.55997286 27.35715722 -13.15677342 33.99190314 -13.1328125 43.3515625 C-13.13376923 44.16619965 -13.13472595 44.98083679 -13.13571167 45.82015991 C-13.13639166 47.53993812 -13.13454998 49.25971892 -13.13037109 50.97949219 C-13.12500649 53.62180283 -13.13032925 56.26394455 -13.13671875 58.90625 C-13.13605821 60.57552121 -13.13477754 62.24479232 -13.1328125 63.9140625 C-13.13483673 64.70881989 -13.13686096 65.50357727 -13.13894653 66.32241821 C-13.46749956 69.9600854 -13.46749956 69.9600854 -12 73 C-9.0546443 73.10110353 -6.1332244 73.13969279 -3.1875 73.1328125 C-2.30344482 73.13376923 -1.41938965 73.13472595 -0.50854492 73.13571167 C1.36442129 73.13639351 3.23738986 73.13453893 5.11035156 73.13037109 C7.98768388 73.12502289 10.86486008 73.13031593 13.7421875 73.13671875 C15.55729201 73.13605797 17.37239643 73.13477681 19.1875 73.1328125 C20.48747925 73.13584885 20.48747925 73.13584885 21.8137207 73.13894653 C25.72003219 73.51260414 25.72003219 73.51260414 29 72 C29.13848721 69.37791175 29.21319928 66.78415382 29.23828125 64.16015625 C29.246353 63.36403427 29.25442474 62.56791229 29.26274109 61.74766541 C29.27660781 60.05372304 29.28731832 58.35975243 29.29516602 56.66577148 C29.31222307 54.10409077 29.35606321 51.54375409 29.40039062 48.98242188 C29.51393095 37.34008379 28.84168685 28.22044778 20.3125 19.4375 C19.52488281 18.61121094 18.73726562 17.78492188 17.92578125 16.93359375 C14.64482624 13.63932858 13.25685452 13.67770113 8.4375 13.4375 C1.87870538 13.49748898 -1.20090238 14.53196081 -5.3828125 19.56640625 Z " fill="#5f0080" transform="translate(32,3)"/>
<path d="M0 0 C5.4629502 1.51748617 7.99121339 5.54732313 10.75 10.3125 C11.77883444 14.63360467 12.40628636 19.87492727 10.375 23.9375 C8.1875 24.8125 8.1875 24.8125 5.375 24.9375 C0.55301284 22.67411827 -1.76124999 19.89409141 -3.8671875 15.16015625 C-5.12905969 11.45909812 -5.85601064 7.8569806 -5.625 3.9375 C-3.37113181 -0.08026504 -3.37113181 -0.08026504 0 0 Z M-1.625 3.9375 C-1.35629039 9.98346616 -0.69786979 14.16642396 3.375 18.9375 C5.47539331 20.32618516 5.47539331 20.32618516 7.375 20.9375 C8.67692687 16.93362901 7.94404842 14.71113319 6.40234375 10.91015625 C4.88040579 7.98780388 2.90406228 6.01262803 0.375 3.9375 C-0.285 3.9375 -0.945 3.9375 -1.625 3.9375 Z " fill="#5f0080" transform="translate(44.625,24.0625)"/>
<path d="M0 0 C7.92 0 15.84 0 24 0 C24 0.99 24 1.98 24 3 C16.08 3 8.16 3 0 3 C0 2.01 0 1.02 0 0 Z " fill="#5f0080" transform="translate(28,66)"/>
</svg>
