<?xml version="1.0" standalone="no"?>
<!DOCTYPE svg PUBLIC "-//W3C//DTD SVG 20010904//EN"
 "http://www.w3.org/TR/2001/REC-SVG-20010904/DTD/svg10.dtd">
<svg version="1.0" xmlns="http://www.w3.org/2000/svg"
 width="81.000000pt" height="81.000000pt" viewBox="0 0 81.000000 81.000000"
 preserveAspectRatio="xMidYMid meet">

<g transform="translate(0.000000,81.000000) scale(0.100000,-0.100000)"
fill="#32733c" stroke="none">
<path d="M334 711 c-48 -22 -81 -61 -89 -105 -3 -17 -7 -83 -8 -146 -3 -114
-4 -117 -55 -237 -54 -128 -60 -147 -40 -141 12 4 89 179 110 251 12 39 12 39
52 34 23 -3 89 -11 148 -18 l106 -12 6 -56 c3 -31 8 -89 12 -128 3 -40 11 -73
16 -73 7 0 8 45 3 134 -4 74 -4 152 0 174 5 34 11 41 36 46 16 3 41 17 55 31
21 22 25 33 22 78 l-3 52 -37 3 c-32 3 -43 10 -68 47 -55 80 -172 109 -266 66z
m189 -28 c16 -8 41 -34 55 -58 24 -40 31 -44 64 -45 32 0 39 -4 44 -27 10 -39
-14 -76 -63 -92 -37 -13 -43 -20 -53 -59 -10 -40 -13 -43 -38 -38 -15 3 -72
10 -127 16 -144 16 -143 16 -138 44 5 22 8 24 30 15 37 -14 95 17 105 56 11
42 -9 135 -29 135 -11 0 -13 -5 -8 -17 4 -10 10 -41 12 -69 5 -45 3 -53 -18
-68 -32 -22 -55 -20 -80 5 -18 18 -21 29 -16 76 6 60 24 94 62 119 54 35 138
38 198 7z"/>
<path d="M507 614 c-8 -8 1 -24 14 -24 5 0 9 7 9 15 0 15 -12 20 -23 9z"/>
</g>
</svg>
