<?xml version="1.0" encoding="UTF-8"?>
<svg version="1.1" xmlns="http://www.w3.org/2000/svg" width="81" height="81">
<path d="M0 0 C0 21.45 0 42.9 0 65 C-1.32 65 -2.64 65 -4 65 C-4.00410889 64.17798096 -4.00821777 63.35596191 -4.01245117 62.5090332 C-4.04539243 58.77612958 -4.11604104 55.04485666 -4.1875 51.3125 C-4.19330078 50.01892578 -4.19910156 48.72535156 -4.20507812 47.39257812 C-4.23408203 46.14541016 -4.26308594 44.89824219 -4.29296875 43.61328125 C-4.3086792 42.46641846 -4.32438965 41.31955566 -4.34057617 40.13793945 C-5.18809856 36.10491273 -6.94739654 34.67375175 -10 32 C-13.66320917 26.63601514 -14.42560781 22.49051911 -14 16 C-12.19779338 8.27436429 -9.0472486 0 0 0 Z M-5 6 C-9.48223749 11.18258709 -10.29093466 14.80675126 -10.22265625 21.48828125 C-9.9221031 24.87873167 -8.89518043 27.19232528 -7 30 C-6.01 30.66 -5.02 31.32 -4 32 C-4 23.42 -4 14.84 -4 6 C-4.33 6 -4.66 6 -5 6 Z " fill="#5f0080" transform="translate(70,8)"/>
<path d="M0 0 C4.12082204 3.04582498 6.03527169 5.98341278 7 11 C7.08623497 16.99333012 6.04937545 21.37214235 2 26 C0.68 26.33 -0.64 26.66 -2 27 C-2 39.54 -2 52.08 -2 65 C-3.32 65 -4.64 65 -6 65 C-6 52.46 -6 39.92 -6 27 C-8.475 26.01 -8.475 26.01 -11 25 C-14.76102298 20.31723835 -14.48761905 15.89171676 -14.36328125 10.11328125 C-13.87218676 5.90465426 -12.88202934 4.05156048 -10 1 C-6.77420757 -0.61289621 -3.48804367 -0.58915133 0 0 Z M-7.625 5.375 C-10.38077592 8.42085759 -10.92197521 9.18854216 -11.3125 13.25 C-10.9439843 17.6721884 -9.86805146 19.65393996 -7 23 C-5.13740463 24.32051497 -5.13740463 24.32051497 -3 24 C0.2769294 21.86618551 1.75006004 20.74981988 3 17 C3.37288316 11.96607729 3.03052983 9.07955939 0 5 C-0.66 4.34 -1.32 3.68 -2 3 C-5.21922387 2.66454334 -5.21922387 2.66454334 -7.625 5.375 Z " fill="#5f0080" transform="translate(20,8)"/>
<path d="M0 0 C1.32 0 2.64 0 4 0 C4.01458252 0.56509277 4.02916504 1.13018555 4.04418945 1.71240234 C4.11856058 4.26730019 4.21525242 6.82087498 4.3125 9.375 C4.33505859 10.26445312 4.35761719 11.15390625 4.38085938 12.0703125 C4.41630859 12.92109375 4.45175781 13.771875 4.48828125 14.6484375 C4.51446533 15.43395996 4.54064941 16.21948242 4.56762695 17.02880859 C4.84889597 19.40040156 4.84889597 19.40040156 8 21 C8 14.07 8 7.14 8 0 C8.99 0 9.98 0 11 0 C11.33 6.6 11.66 13.2 12 20 C14.35358251 17.64641749 14.27871904 17.07031606 14.4140625 13.8671875 C14.45273437 13.06152344 14.49140625 12.25585938 14.53125 11.42578125 C14.57765625 10.16314453 14.57765625 10.16314453 14.625 8.875 C14.68300781 7.60076172 14.68300781 7.60076172 14.7421875 6.30078125 C14.83656494 4.20088316 14.91937586 2.10047109 15 0 C15.99 0 16.98 0 18 0 C18.14584064 3.22868746 18.23424106 6.45652365 18.3125 9.6875 C18.35439453 10.59951172 18.39628906 11.51152344 18.43945312 12.45117188 C18.52522421 17.16858171 18.54639899 19.28246136 15.60546875 23.14453125 C13 25 13 25 11 25 C11 37.87 11 50.74 11 64 C10.01 64 9.02 64 8 64 C8 51.13 8 38.26 8 25 C6.68 24.67 5.36 24.34 4 24 C2.12743518 22.40485219 1.10197415 21.2039483 0 19 C-0.08342159 17.55151418 -0.10732861 16.09929131 -0.09765625 14.6484375 C-0.09443359 13.79765625 -0.09121094 12.946875 -0.08789062 12.0703125 C-0.07951172 11.18085938 -0.07113281 10.29140625 -0.0625 9.375 C-0.05798828 8.4778125 -0.05347656 7.580625 -0.04882812 6.65625 C-0.03702591 4.43743352 -0.02056155 2.21874982 0 0 Z " fill="#5f0080" transform="translate(32,9)"/>
</svg>
