<?xml version="1.0" standalone="no"?>
<!DOCTYPE svg PUBLIC "-//W3C//DTD SVG 20010904//EN"
 "http://www.w3.org/TR/2001/REC-SVG-20010904/DTD/svg10.dtd">
<svg version="1.0" xmlns="http://www.w3.org/2000/svg"
 width="81.000000pt" height="81.000000pt" viewBox="0 0 81.000000 81.000000"
 preserveAspectRatio="xMidYMid meet">

<g transform="translate(0.000000,81.000000) scale(0.100000,-0.100000)"
fill="#5f0080" stroke="none">
<path d="M297 673 c-4 -3 -7 -24 -7 -45 0 -21 -2 -38 -4 -38 -2 0 -20 7 -39
15 -85 35 -164 7 -199 -72 -51 -117 21 -331 131 -388 35 -18 216 -18 252 1 38
19 98 89 121 142 25 57 35 184 19 234 -27 81 -125 122 -199 84 -46 -24 -52
-20 -52 29 0 42 -7 54 -23 38z m-58 -93 c55 -25 87 -25 145 1 56 25 92 19 129
-19 52 -55 60 -119 26 -227 -16 -53 -31 -78 -73 -121 l-52 -54 -75 1 c-41 1
-78 1 -84 -1 -48 -13 -120 42 -163 124 -36 72 -43 205 -12 254 19 32 68 61
100 61 8 0 35 -8 59 -19z"/>
<path d="M670 558 c0 -60 0 -61 -20 -43 -11 10 -20 31 -20 47 0 18 -5 28 -15
28 -13 0 -15 -22 -15 -140 l0 -139 35 -28 c33 -26 35 -32 35 -85 0 -45 3 -58
15 -58 12 0 15 13 15 56 0 50 3 58 35 88 l35 33 0 137 c0 114 -2 136 -15 136
-10 0 -15 -10 -15 -28 0 -16 -9 -37 -20 -47 -20 -18 -20 -17 -20 43 0 48 -3
62 -15 62 -12 0 -15 -14 -15 -62z m0 -136 c0 -34 0 -35 -20 -17 -13 12 -20 31
-20 53 0 34 0 35 20 17 13 -12 20 -31 20 -53z m53 -10 c-16 -12 -18 -10 -21
13 -2 16 4 35 15 47 18 20 18 20 21 -13 3 -23 -2 -37 -15 -47z m-2 -106 l-21
-20 0 33 c0 19 8 43 18 54 17 19 17 19 20 -13 3 -23 -3 -39 -17 -54z m-51 11
c0 -29 0 -30 -20 -12 -12 10 -20 31 -20 48 0 29 0 30 20 12 12 -10 20 -31 20
-48z"/>
</g>
</svg>
