<?xml version="1.0" standalone="no"?>
<!DOCTYPE svg PUBLIC "-//W3C//DTD SVG 20010904//EN"
 "http://www.w3.org/TR/2001/REC-SVG-20010904/DTD/svg10.dtd">
<svg version="1.0" xmlns="http://www.w3.org/2000/svg"
 width="81.000000pt" height="81.000000pt" viewBox="0 0 81.000000 81.000000"
 preserveAspectRatio="xMidYMid meet">

<g transform="translate(0.000000,81.000000) scale(0.100000,-0.100000)"
fill="#32733c" stroke="none">
<path d="M345 716 c-40 -18 -271 -253 -285 -289 -14 -39 -13 -63 7 -104 29
-62 116 -93 176 -62 31 16 256 239 273 271 59 111 -57 235 -171 184z m125 -45
c59 -59 50 -107 -36 -192 l-54 -53 -75 74 -76 75 65 63 c58 56 68 62 106 62
32 0 48 -6 70 -29z m-182 -194 l72 -73 -57 -56 c-70 -68 -102 -83 -149 -68
-46 16 -74 54 -74 102 0 35 7 47 62 104 33 35 64 64 67 64 4 0 39 -33 79 -73z"/>
<path d="M554 461 c-82 -50 -81 -173 2 -228 34 -22 103 -21 142 2 75 45 84
152 18 212 -30 28 -43 33 -83 33 -29 0 -60 -7 -79 -19z m148 -37 c15 -15 28
-36 28 -46 0 -16 -10 -18 -105 -18 -68 0 -105 4 -105 11 0 21 22 51 53 70 41
26 90 19 129 -17z m28 -99 c0 -26 -29 -62 -60 -75 -43 -18 -94 -5 -124 31 -46
54 -38 59 79 59 88 0 105 -3 105 -15z"/>
<path d="M325 235 c-37 -36 -35 -97 4 -136 86 -85 213 38 135 130 -22 26 -33
31 -70 31 -34 0 -51 -6 -69 -25z m109 -16 c17 -14 26 -30 26 -50 0 -65 -80
-93 -119 -43 -27 35 -26 59 4 89 30 30 54 31 89 4z"/>
</g>
</svg>
