<?xml version="1.0" encoding="UTF-8"?>
<svg version="1.1" xmlns="http://www.w3.org/2000/svg" width="81" height="81">
<path d="M0 0 C1.09783813 -0.00315216 2.19567627 -0.00630432 3.32678223 -0.009552 C5.11892151 -0.00651566 5.11892151 -0.00651566 6.94726562 -0.00341797 C8.16426147 -0.00437469 9.38125732 -0.00533142 10.63513184 -0.00631714 C13.21427461 -0.00699919 15.79341909 -0.00514319 18.37255859 -0.00097656 C22.33630198 0.00437131 26.29993204 -0.00092076 30.26367188 -0.00732422 C32.76237004 -0.00666344 35.26106814 -0.00538229 37.75976562 -0.00341797 C38.95452515 -0.0054422 40.14928467 -0.00746643 41.38024902 -0.009552 C42.47808716 -0.00639984 43.57592529 -0.00324768 44.70703125 0 C46.16477966 0.00119339 46.16477966 0.00119339 47.65197754 0.00241089 C49.85351562 0.12939453 49.85351562 0.12939453 50.85351562 1.12939453 C50.94777158 3.27683002 50.9709421 5.42740479 50.96704102 7.5769043 C50.96718704 8.25004669 50.96733307 8.92318909 50.96748352 9.61672974 C50.96678441 11.85145237 50.95899215 14.08609263 50.95117188 16.32080078 C50.94930769 17.86636815 50.94788379 19.4119361 50.94688416 20.95750427 C50.94305903 25.0329653 50.93322879 29.1083909 50.92218018 33.18383789 C50.91017129 38.06967181 50.90556379 42.95551755 50.89972687 47.841362 C50.89001703 55.27073084 50.87086046 62.7000219 50.85351562 70.12939453 C32.04351562 70.12939453 13.23351562 70.12939453 -6.14648438 70.12939453 C-6.18659318 52.94945453 -6.18659318 52.94945453 -6.1953125 45.65087891 C-6.20130043 40.66218 -6.2083994 35.67349936 -6.22192383 30.68481445 C-6.23275446 26.66481767 -6.23876158 22.64484048 -6.24136162 18.62483025 C-6.24321555 17.08776478 -6.24683556 15.55070044 -6.25221443 14.01364326 C-6.25942721 11.86803966 -6.26047522 9.72251798 -6.26000977 7.5769043 C-6.26223038 6.35334732 -6.26445099 5.12979034 -6.26673889 3.86915588 C-6.06085505 -0.82150032 -4.20614751 0.00344337 0 0 Z M-2.14648438 4.12939453 C-2.14648438 6.76939453 -2.14648438 9.40939453 -2.14648438 12.12939453 C14.35351562 12.12939453 30.85351562 12.12939453 47.85351562 12.12939453 C47.85351562 9.48939453 47.85351562 6.84939453 47.85351562 4.12939453 C31.35351562 4.12939453 14.85351562 4.12939453 -2.14648438 4.12939453 Z M-2.14648438 16.12939453 C-2.14648438 32.95939453 -2.14648438 49.78939453 -2.14648438 67.12939453 C14.35351562 67.12939453 30.85351562 67.12939453 47.85351562 67.12939453 C47.85351562 50.29939453 47.85351562 33.46939453 47.85351562 16.12939453 C31.35351562 16.12939453 14.85351562 16.12939453 -2.14648438 16.12939453 Z " fill="#32733c" transform="translate(18.146484375,4.87060546875)"/>
<path d="M0 0 C5.17123309 2.75722826 8.66936208 6.91506844 11.078125 12.19140625 C12.61314525 19.16877102 12.15600842 24.00327851 8.765625 30.31640625 C5.52908443 34.99140929 2.37159171 38.04375715 -3.234375 39.31640625 C-10.37569708 40.18105063 -16.33931107 39.64391909 -22.234375 35.31640625 C-27.36409271 30.7755592 -28.93929099 25.56233032 -29.546875 18.87890625 C-28.95729154 12.15765484 -27.31867909 7.94917224 -22.234375 3.37890625 C-16.11331752 -1.71038207 -7.58361714 -2.32016259 0 0 Z M-21.8515625 8.046875 C-25.32372478 12.96086738 -26.22476739 17.39606065 -25.234375 23.31640625 C-23.52788117 28.24627731 -20.74565752 31.68809383 -16.234375 34.31640625 C-11.73946972 36.14766396 -7.73958432 36.82350702 -3.046875 35.37890625 C1.88512235 33.18909943 5.37633479 29.09498667 7.765625 24.31640625 C8.57681254 18.08185058 8.08985096 13.18481761 4.3828125 8.01171875 C0.64334894 4.09160477 -3.44972818 2.5713558 -8.734375 1.81640625 C-14.02237607 2.57183497 -18.14542662 4.08113057 -21.8515625 8.046875 Z " fill="#32733c" transform="translate(49.234375,26.68359375)"/>
<path d="M0 0 C2.97 0 5.94 0 9 0 C9 1.32 9 2.64 9 4 C6.03 4 3.06 4 0 4 C0 2.68 0 1.36 0 0 Z " fill="#32733c" transform="translate(53,11)"/>
</svg>
