<?xml version="1.0" standalone="no"?>
<!DOCTYPE svg PUBLIC "-//W3C//DTD SVG 20010904//EN"
 "http://www.w3.org/TR/2001/REC-SVG-20010904/DTD/svg10.dtd">
<svg version="1.0" xmlns="http://www.w3.org/2000/svg"
 width="80.000000pt" height="80.000000pt" viewBox="0 0 80.000000 80.000000"
 preserveAspectRatio="xMidYMid meet">

<g transform="translate(0.000000,80.000000) scale(0.100000,-0.100000)"
fill="#000000" stroke="none">
<path d="M362 734 c-12 -8 -22 -22 -22 -30 0 -9 -11 -14 -34 -14 -66 0 -86
-54 -41 -108 33 -39 32 -46 -10 -61 -49 -17 -103 -84 -111 -137 -11 -76 12
-141 70 -199 57 -57 151 -115 186 -115 28 0 112 47 168 95 62 54 86 106 87
187 0 59 -3 70 -31 105 -16 21 -49 47 -72 58 -23 11 -41 24 -42 28 0 5 11 23
25 41 25 33 31 61 17 82 -10 16 -50 35 -65 32 -6 -1 -24 10 -39 25 -31 31 -54
34 -86 11z m73 -20 c8 -9 14 -24 11 -33 -3 -9 -12 -42 -21 -74 -9 -32 -22 -56
-27 -55 -9 3 -46 113 -48 140 0 13 32 38 50 38 10 0 26 -7 35 -16z m93 -46
c19 -19 14 -46 -14 -84 -19 -25 -34 -34 -55 -34 -16 0 -29 3 -29 8 0 22 32
107 43 114 18 11 41 10 55 -4z m-176 -53 c22 -66 22 -65 -11 -65 -45 0 -101
86 -74 114 4 4 21 6 38 4 26 -3 32 -9 47 -53z m183 -110 c53 -26 90 -65 101
-109 l6 -26 -96 0 c-57 0 -96 -4 -96 -10 0 -6 39 -10 96 -10 l95 0 -3 -27 c-3
-27 -6 -28 -60 -31 -71 -4 -77 -22 -8 -22 28 0 50 -3 50 -6 0 -44 -165 -174
-220 -174 -39 0 -170 89 -205 139 -37 54 -45 150 -17 201 54 99 230 136 357
75z"/>
</g>
</svg>
