<?xml version="1.0" standalone="no"?>
<!DOCTYPE svg PUBLIC "-//W3C//DTD SVG 20010904//EN"
 "http://www.w3.org/TR/2001/REC-SVG-20010904/DTD/svg10.dtd">
<svg version="1.0" xmlns="http://www.w3.org/2000/svg"
 width="162.000000pt" height="162.000000pt" viewBox="0 0 162.000000 162.000000"
 preserveAspectRatio="xMidYMid meet">

<g transform="translate(0.000000,162.000000) scale(0.100000,-0.100000)"
fill="#32733c" stroke="none">
<path d="M440 1350 c0 -5 -9 -10 -20 -10 -11 0 -20 -4 -20 -10 0 -5 -9 -10
-20 -10 -11 0 -20 -4 -20 -10 0 -5 -7 -10 -15 -10 -20 0 -105 -85 -105 -105 0
-8 -4 -15 -10 -15 -5 0 -10 -9 -10 -20 0 -11 -4 -20 -10 -20 -5 0 -10 -13 -10
-30 0 -16 -4 -30 -10 -30 -5 0 -10 -22 -10 -50 0 -27 -4 -50 -10 -50 -5 0 -10
-18 -10 -40 0 -22 -4 -40 -10 -40 -5 0 -10 -22 -10 -50 0 -27 -4 -50 -10 -50
-6 0 -10 -40 -10 -100 0 -60 4 -100 10 -100 6 0 10 -18 10 -40 0 -22 5 -40 10
-40 6 0 10 -8 10 -18 0 -10 9 -24 20 -32 11 -8 20 -20 20 -27 0 -19 106 -123
125 -123 8 0 15 -4 15 -10 0 -5 9 -10 20 -10 11 0 20 -4 20 -10 0 -5 9 -10 20
-10 11 0 20 -4 20 -10 0 -5 23 -10 50 -10 28 0 50 -4 50 -10 0 -5 18 -10 40
-10 22 0 40 5 40 10 0 6 18 10 40 10 22 0 40 5 40 10 0 6 13 10 28 10 16 0 34
8 42 20 8 11 20 20 27 20 16 0 103 85 103 101 0 6 18 28 40 49 22 21 40 43 40
49 0 17 188 201 205 201 8 0 15 5 15 10 0 6 9 10 20 10 11 0 20 5 20 10 0 6 8
10 18 10 10 0 24 9 32 20 8 11 22 20 32 20 10 0 18 5 18 10 0 6 8 10 18 10 10
0 24 9 32 20 8 11 22 20 32 20 11 0 18 7 18 18 0 10 9 24 20 32 11 8 20 22 20
32 0 10 5 18 10 18 6 0 10 14 10 30 0 17 5 30 10 30 6 0 10 33 10 80 0 47 -4
80 -10 80 -5 0 -10 9 -10 20 0 11 -4 20 -10 20 -5 0 -10 7 -10 15 0 20 -65 85
-85 85 -8 0 -15 5 -15 10 0 6 -9 10 -20 10 -11 0 -20 5 -20 10 0 7 -153 10
-440 10 -287 0 -440 -3 -440 -10z m840 -40 c0 -5 9 -10 20 -10 11 0 20 -4 20
-10 0 -5 7 -10 15 -10 20 0 85 -65 85 -85 0 -8 5 -15 10 -15 6 0 10 -37 10
-90 0 -53 -4 -90 -10 -90 -5 0 -10 -8 -10 -18 0 -10 -9 -24 -20 -32 -11 -8
-20 -22 -20 -32 0 -11 -7 -18 -18 -18 -10 0 -24 -9 -32 -20 -8 -11 -22 -20
-32 -20 -10 0 -18 -4 -18 -10 0 -5 -8 -10 -18 -10 -10 0 -24 -9 -32 -20 -8
-11 -22 -20 -32 -20 -10 0 -18 -4 -18 -10 0 -5 -9 -10 -20 -10 -11 0 -20 -4
-20 -10 0 -5 -7 -10 -15 -10 -17 0 -205 -184 -205 -201 0 -6 -14 -24 -30 -39
-16 -15 -30 -33 -30 -39 0 -17 -127 -141 -145 -141 -8 0 -15 -4 -15 -10 0 -5
-13 -10 -30 -10 -16 0 -30 -4 -30 -10 0 -6 -33 -10 -80 -10 -47 0 -80 4 -80
10 0 6 -13 10 -30 10 -16 0 -30 5 -30 10 0 6 -9 10 -20 10 -11 0 -20 5 -20 10
0 6 -7 10 -15 10 -20 0 -145 125 -145 145 0 8 -4 15 -10 15 -5 0 -10 14 -10
30 0 17 -4 30 -10 30 -5 0 -10 18 -10 40 0 22 -4 40 -10 40 -5 0 -10 14 -10
30 0 17 5 30 10 30 6 0 10 23 10 50 0 28 5 50 10 50 6 0 10 23 10 50 0 28 5
50 10 50 6 0 10 23 10 50 0 28 5 50 10 50 6 0 10 18 10 40 0 22 5 40 10 40 6
0 10 9 10 20 0 11 5 20 10 20 6 0 10 7 10 15 0 20 85 105 105 105 8 0 15 5 15
10 0 6 9 10 20 10 11 0 20 5 20 10 0 6 14 10 30 10 17 0 30 5 30 10 0 6 137
10 390 10 253 0 390 -4 390 -10z"/>
<path d="M900 1190 c0 -5 -12 -10 -26 -10 -29 0 -54 -21 -54 -44 0 -9 -4 -16
-10 -16 -5 0 -10 -18 -10 -40 0 -22 5 -40 10 -40 6 0 10 -7 10 -16 0 -9 14
-29 30 -44 17 -15 30 -33 30 -40 0 -16 26 -40 44 -40 9 0 16 -4 16 -10 0 -6
36 -10 88 -10 76 0 89 3 102 20 8 11 22 20 32 20 10 0 18 5 18 10 0 6 8 10 18
10 10 0 24 9 32 20 8 11 20 20 28 20 22 0 42 26 42 54 0 14 5 26 10 26 6 0 10
9 10 20 0 11 -4 20 -10 20 -5 0 -10 7 -10 15 0 20 -45 65 -65 65 -8 0 -15 5
-15 10 0 6 -60 10 -160 10 -100 0 -160 -4 -160 -10z m335 -75 c14 -13 25 -34
25 -45 0 -24 -22 -50 -42 -50 -8 0 -20 -9 -28 -20 -8 -11 -22 -20 -32 -20 -10
0 -18 -4 -18 -10 0 -5 -9 -10 -20 -10 -11 0 -20 -4 -20 -10 0 -5 -9 -10 -20
-10 -11 0 -20 -4 -20 -10 0 -5 -18 -10 -40 -10 -22 0 -40 5 -40 10 0 6 -7 10
-15 10 -19 0 -65 44 -65 62 0 8 -9 20 -20 28 -13 9 -20 26 -20 48 0 59 8 61
188 62 160 0 163 0 187 -25z"/>
<path d="M480 1130 c0 -5 -11 -10 -25 -10 -40 0 -95 -61 -95 -105 0 -19 -4
-35 -10 -35 -5 0 -10 -22 -10 -50 0 -27 -4 -50 -10 -50 -5 0 -10 -22 -10 -50
0 -27 -4 -50 -10 -50 -6 0 -10 -37 -10 -90 0 -53 4 -90 10 -90 6 0 10 -9 10
-20 0 -11 5 -20 10 -20 6 0 10 -7 10 -15 0 -20 45 -65 65 -65 8 0 15 -4 15
-10 0 -5 9 -10 20 -10 11 0 20 -4 20 -10 0 -6 37 -10 90 -10 53 0 90 4 90 10
0 6 7 10 15 10 20 0 145 125 145 145 0 8 5 15 10 15 6 0 10 9 10 20 0 11 5 20
10 20 6 0 10 30 10 70 0 40 -4 70 -10 70 -5 0 -10 7 -10 16 0 8 -22 37 -50 64
-27 27 -50 54 -50 60 0 6 -27 38 -60 70 -33 32 -60 66 -60 74 0 9 -9 16 -20
16 -11 0 -20 5 -20 10 0 6 -13 10 -30 10 -16 0 -30 5 -30 10 0 6 -4 10 -10 10
-5 0 -10 -4 -10 -10z m40 -60 c0 -5 9 -10 20 -10 11 0 20 -7 20 -15 0 -9 32
-47 70 -85 39 -38 70 -74 70 -80 0 -6 18 -29 40 -50 26 -25 40 -47 40 -64 0
-14 5 -26 10 -26 6 0 10 -9 10 -20 0 -11 -4 -20 -10 -20 -5 0 -10 -9 -10 -20
0 -11 -4 -20 -10 -20 -5 0 -10 -7 -10 -15 0 -27 -127 -145 -155 -145 -14 0
-25 -4 -25 -10 0 -5 -18 -10 -40 -10 -22 0 -40 5 -40 10 0 6 -9 10 -20 10 -11
0 -20 5 -20 10 0 6 -7 10 -15 10 -20 0 -65 45 -65 65 0 8 -4 15 -10 15 -5 0
-10 14 -10 30 0 17 -4 30 -10 30 -5 0 -10 9 -10 20 0 11 5 20 10 20 6 0 10 27
10 60 0 33 4 60 10 60 6 0 10 18 10 40 0 22 5 40 10 40 6 0 10 23 10 50 0 28
5 50 10 50 6 0 10 7 10 15 0 26 43 64 73 64 15 1 27 -3 27 -9z"/>
</g>
</svg>
