<?xml version="1.0" encoding="UTF-8"?>
<svg version="1.1" xmlns="http://www.w3.org/2000/svg" width="81" height="81">
<path d="M0 0 C4.67591236 2.66948956 6.49693342 5.0942124 8.68359375 10.0859375 C9.20776367 13.15380859 9.20776367 13.15380859 9.4140625 16.359375 C9.49462891 17.51308594 9.57519531 18.66679687 9.65820312 19.85546875 C9.72845703 21.04527344 9.79871094 22.23507813 9.87109375 23.4609375 C9.95294922 24.67394531 10.03480469 25.88695313 10.11914062 27.13671875 C10.31875796 30.11923652 10.50651649 33.10201078 10.68359375 36.0859375 C12.66359375 33.6109375 12.66359375 33.6109375 14.68359375 31.0859375 C16.43359375 31.1484375 16.43359375 31.1484375 18.68359375 32.0859375 C19.66418406 33.8256945 20.64314823 35.57257283 21.4609375 37.39453125 C22.58498799 39.309303 22.58498799 39.309303 24.98046875 39.78125 C29.2285607 41.83162964 30.75448484 45.50182507 32.99609375 49.5234375 C33.45048828 50.30009766 33.90488281 51.07675781 34.37304688 51.87695312 C37.68359375 57.65671992 37.68359375 57.65671992 37.68359375 61.0859375 C29.63435392 61.13222585 21.58516946 61.16778876 13.53582954 61.18956184 C9.79841545 61.20001048 6.06109225 61.2141892 2.32373047 61.23681641 C-1.28131125 61.25850654 -4.88626542 61.27049799 -8.49136734 61.27569199 C-9.86852523 61.27939466 -11.24567819 61.28662484 -12.62279892 61.29739761 C-14.5478017 61.31186085 -16.47289212 61.31275398 -18.39794922 61.31298828 C-19.49493134 61.3174295 -20.59191345 61.32187073 -21.72213745 61.32644653 C-24.31640625 61.0859375 -24.31640625 61.0859375 -26.31640625 59.0859375 C-26.48339844 57.26782227 -26.48339844 57.26782227 -26.36328125 55.02734375 C-26.30188965 53.75528076 -26.30188965 53.75528076 -26.23925781 52.45751953 C-26.1822168 51.53052246 -26.12517578 50.60352539 -26.06640625 49.6484375 C-26.01194336 48.6879248 -25.95748047 47.72741211 -25.90136719 46.73779297 C-25.77915018 44.64374141 -25.65162225 42.54999487 -25.51953125 40.45654297 C-25.3075808 36.93949018 -25.1393255 33.42181128 -24.97265625 29.90234375 C-24.83898333 27.50511046 -24.70359533 25.10797213 -24.56640625 22.7109375 C-24.51709961 21.5772876 -24.46779297 20.4436377 -24.41699219 19.27563477 C-23.97846578 12.43411284 -22.91143694 7.3435075 -18.31640625 2.0859375 C-13.01269772 -1.86100838 -6.13250328 -2.41990855 0 0 Z M-15.31640625 5.0859375 C-17.80851146 7.38661769 -17.80851146 7.38661769 -19.31640625 10.0859375 C-19.31640625 11.4059375 -19.31640625 12.7259375 -19.31640625 14.0859375 C-11.39640625 14.0859375 -3.47640625 14.0859375 4.68359375 14.0859375 C4.27739319 8.17937383 4.27739319 8.17937383 0.99609375 5.2734375 C-5.13692786 1.22332889 -8.91754663 1.53101549 -15.31640625 5.0859375 Z M-20.31640625 18.0859375 C-20.64640625 22.2728125 -20.97640625 26.4596875 -21.31640625 30.7734375 C-21.42082031 32.06467529 -21.52523438 33.35591309 -21.6328125 34.6862793 C-22.22944976 42.50234581 -22.43412909 50.24837582 -22.31640625 58.0859375 C-12.29645119 59.5194952 -12.29645119 59.5194952 -3.390625 55.8125 C-1.14522322 52.99725676 0.78555106 50.14343671 2.68359375 47.0859375 C3.41449219 46.24417969 4.14539063 45.40242188 4.8984375 44.53515625 C6.9516188 41.71820948 7.14769528 40.51526875 6.99609375 37.0859375 C6.96128906 36.14105469 6.92648438 35.19617188 6.890625 34.22265625 C6.53521397 28.8378438 6.14613996 23.46303718 5.68359375 18.0859375 C-2.89640625 18.0859375 -11.47640625 18.0859375 -20.31640625 18.0859375 Z M14.68359375 37.0859375 C12.83244531 39.06824622 11.09286445 41.05830515 9.37109375 43.1484375 C8.87633545 43.74172852 8.38157715 44.33501953 7.87182617 44.94628906 C1.97968613 51.03483319 1.97968613 51.03483319 -1.31640625 58.0859375 C9.90359375 58.0859375 21.12359375 58.0859375 32.68359375 58.0859375 C28.42894974 48.83129349 28.42894974 48.83129349 24.68359375 44.0859375 C24.04421875 43.9621875 23.40484375 43.8384375 22.74609375 43.7109375 C19.44132865 42.70949353 18.47717238 39.89587735 16.68359375 37.0859375 C16.02359375 37.0859375 15.36359375 37.0859375 14.68359375 37.0859375 Z " fill="#5f0080" transform="translate(34.31640625,9.9140625)"/>
<path d="M0 0 C0.99 0.33 1.98 0.66 3 1 C2.67 2.32 2.34 3.64 2 5 C1.01 4.34 0.02 3.68 -1 3 C-0.67 2.01 -0.34 1.02 0 0 Z " fill="#5f0080" transform="translate(26,17)"/>
<path d="M0 0 C0.66 0.33 1.32 0.66 2 1 C1.67 2.32 1.34 3.64 1 5 C0.01 4.01 -0.98 3.02 -2 2 C-1.34 1.34 -0.68 0.68 0 0 Z " fill="#5f0080" transform="translate(33,17)"/>
<path d="M0 0 C0.99 0.99 1.98 1.98 3 3 C2.01 3.66 1.02 4.32 0 5 C-0.5625 3.0625 -0.5625 3.0625 -1 1 C-0.67 0.67 -0.34 0.34 0 0 Z " fill="#5f0080" transform="translate(20,17)"/>
<path d="M0 0 C0.99 0.99 1.98 1.98 3 3 C1.68 3 0.36 3 -1 3 C-0.67 2.01 -0.34 1.02 0 0 Z " fill="#5f0080" transform="translate(61,40)"/>
<path d="M0 0 C0.66 0.33 1.32 0.66 2 1 C1.67 1.99 1.34 2.98 1 4 C0.01 3.67 -0.98 3.34 -2 3 C-1.34 2.01 -0.68 1.02 0 0 Z " fill="#5f0080" transform="translate(54,35)"/>
<path d="M0 0 C0.99 0.33 1.98 0.66 3 1 C2.67 1.99 2.34 2.98 2 4 C1.34 3.67 0.68 3.34 0 3 C0 2.01 0 1.02 0 0 Z " fill="#5f0080" transform="translate(58,29)"/>
</svg>
