<?xml version="1.0" standalone="no"?>
<!DOCTYPE svg PUBLIC "-//W3C//DTD SVG 20010904//EN"
 "http://www.w3.org/TR/2001/REC-SVG-20010904/DTD/svg10.dtd">
<svg version="1.0" xmlns="http://www.w3.org/2000/svg"
 width="81.000000pt" height="81.000000pt" viewBox="0 0 81.000000 81.000000"
 preserveAspectRatio="xMidYMid meet">

<g transform="translate(0.000000,81.000000) scale(0.100000,-0.100000)"
fill="#32733c" stroke="none">
<path d="M518 688 c-21 -5 -57 -27 -80 -47 l-42 -38 -43 19 c-30 13 -61 18
-101 16 l-57 -3 -3 -37 c-3 -35 -6 -38 -33 -38 -77 0 -124 -97 -76 -157 6 -9
6 -13 -2 -13 -36 0 12 -142 65 -192 60 -55 111 -72 224 -76 59 -2 124 1 147 7
63 17 134 70 168 125 29 48 30 54 27 150 -3 116 -16 152 -53 148 -22 -2 -25 3
-36 59 -17 90 -27 98 -105 77z m72 -44 c15 -38 12 -131 -5 -163 -17 -34 -70
-81 -91 -81 -25 0 -16 57 21 129 31 62 34 81 15 81 -4 0 -17 -22 -30 -50 -13
-27 -26 -50 -29 -50 -3 1 -16 17 -29 37 l-23 36 23 24 c29 31 86 62 116 63 15
0 26 -8 32 -26z m-262 -40 c73 -30 119 -91 124 -165 5 -71 -20 -62 -98 36 -44
55 -71 82 -77 76 -7 -7 10 -35 46 -80 32 -38 57 -72 57 -75 0 -4 -24 -6 -53
-6 -60 0 -76 11 -102 73 -15 37 -20 112 -9 141 8 21 63 21 112 0z m-143 -91
c3 -16 14 -49 25 -75 l18 -48 -48 0 c-41 0 -52 4 -69 26 -33 42 -23 96 22 114
36 15 46 11 52 -17z m498 -22 c5 -19 6 -50 2 -68 l-6 -33 -64 0 -65 0 35 46
c19 25 35 51 35 58 0 18 22 37 39 34 8 -2 19 -18 24 -37z m8 -151 c-9 -69 -68
-136 -151 -174 -59 -27 -234 -29 -292 -3 -73 33 -127 95 -148 169 l-8 27 91 4
c51 2 186 3 302 3 l210 -1 -4 -25z"/>
</g>
</svg>
