<?xml version="1.0" standalone="no"?>
<!DOCTYPE svg PUBLIC "-//W3C//DTD SVG 20010904//EN"
 "http://www.w3.org/TR/2001/REC-SVG-20010904/DTD/svg10.dtd">
<svg version="1.0" xmlns="http://www.w3.org/2000/svg"
 width="81.000000pt" height="81.000000pt" viewBox="0 0 81.000000 81.000000"
 preserveAspectRatio="xMidYMid meet">

<g transform="translate(0.000000,81.000000) scale(0.100000,-0.100000)"
fill="#32733c" stroke="none">
<path d="M255 720 c-89 -8 -114 -17 -144 -56 -34 -43 -23 -115 27 -183 37 -50
92 -71 187 -71 92 0 119 -13 141 -66 12 -29 12 -39 0 -66 -7 -18 -27 -46 -43
-61 l-30 -28 -88 36 c-98 41 -94 42 -121 -38 -13 -38 -13 -51 -4 -62 34 -41
221 -62 305 -35 132 42 205 140 205 276 0 115 -54 208 -144 250 -60 28 -128
30 -306 10 -63 -7 -117 -12 -118 -10 -2 1 -1 12 3 23 10 32 53 49 145 55 147
11 190 17 190 27 0 10 -83 10 -205 -1z m205 -106 c0 -4 -10 -47 -21 -96 l-21
-90 -91 7 c-98 7 -134 20 -165 59 -21 27 -47 84 -41 90 5 5 249 33 302 35 20
0 37 -2 37 -5z m137 -66 c29 -28 61 -85 52 -91 -2 -2 -34 -26 -71 -55 -37 -29
-72 -52 -77 -52 -5 0 -12 8 -16 19 -3 10 -14 26 -24 35 -17 16 -17 19 1 99 27
117 22 110 65 92 21 -9 52 -30 70 -47z m64 -227 c-9 -54 -39 -121 -57 -128
-10 -3 -62 21 -112 52 -1 1 1 16 4 34 5 25 24 45 83 90 l76 58 7 -30 c3 -17 3
-51 -1 -76z m-349 -128 c65 -25 68 -28 68 -60 0 -30 -3 -33 -28 -33 -32 0
-133 28 -146 40 -10 10 14 80 28 80 6 0 41 -12 78 -27z m215 1 c24 -14 41 -30
37 -35 -9 -16 -87 -47 -126 -51 -30 -3 -33 0 -36 26 -3 22 4 35 30 57 18 15
37 28 42 29 5 0 29 -12 53 -26z"/>
<path d="M200 545 c0 -9 5 -15 11 -13 6 2 11 8 11 13 0 5 -5 11 -11 13 -6 2
-11 -4 -11 -13z"/>
</g>
</svg>
