<?xml version="1.0" standalone="no"?>
<!DOCTYPE svg PUBLIC "-//W3C//DTD SVG 20010904//EN"
 "http://www.w3.org/TR/2001/REC-SVG-20010904/DTD/svg10.dtd">
<svg version="1.0" xmlns="http://www.w3.org/2000/svg"
 width="81.000000pt" height="81.000000pt" viewBox="0 0 81.000000 81.000000"
 preserveAspectRatio="xMidYMid meet">

<g transform="translate(0.000000,81.000000) scale(0.100000,-0.100000)"
fill="#5f0080" stroke="none">
<path d="M160 730 c0 -5 16 -10 35 -10 33 0 35 -2 35 -34 0 -33 -2 -35 -37
-38 l-38 -3 -3 -52 c-2 -40 -7 -53 -22 -58 -10 -3 -25 -17 -34 -30 -14 -21
-16 -55 -14 -227 l3 -203 160 0 160 0 3 203 c2 172 0 206 -14 227 -9 13 -24
27 -34 30 -15 5 -20 18 -22 58 l-3 52 -37 3 c-36 3 -38 5 -38 38 0 32 2 34 35
34 19 0 35 5 35 10 0 6 -35 10 -85 10 -50 0 -85 -4 -85 -10z m160 -145 l0 -35
-75 0 -75 0 0 35 0 35 75 0 75 0 0 -35z m41 -84 c24 -19 24 -22 24 -208 l0
-188 -142 -3 -143 -3 0 186 c0 184 0 186 25 210 22 23 32 25 118 25 78 0 99
-3 118 -19z"/>
<path d="M460 613 c0 -16 7 -115 15 -222 11 -141 20 -199 30 -211 9 -10 15
-36 15 -64 l0 -47 73 3 72 3 3 44 c2 24 9 53 17 65 8 13 17 87 24 196 7 96 14
194 18 218 l5 42 -136 0 -136 0 0 -27z m240 -10 c0 -10 -7 -103 -15 -207 -10
-127 -19 -192 -27 -198 -21 -13 -126 -9 -135 5 -8 13 -42 396 -35 410 2 4 50
7 108 7 92 0 104 -2 104 -17z m-60 -468 l0 -35 -50 0 -50 0 0 35 0 35 50 0 50
0 0 -35z"/>
</g>
</svg>
