<?xml version="1.0" encoding="UTF-8"?>
<svg version="1.1" xmlns="http://www.w3.org/2000/svg" width="81" height="81">
<path d="M0 0 C3.76312464 2.54010913 5.06206674 5.96909883 7 10 C9.90965203 15.71125618 9.90965203 15.71125618 14.875 19.5 C18.07940668 20.09709833 18.07940668 20.09709833 21.6875 20 C25 20 25 20 28 22 C31.82431274 30.45374395 30.11264246 39.56799094 27 48 C25.28999084 50.70260068 23.30584261 52.80085448 21 55 C20.278125 55.86625 19.55625 56.7325 18.8125 57.625 C10.88777481 64.31699016 2.37551149 66.17100168 -7.765625 65.60546875 C-15.47099044 64.77391687 -21.93421727 61.17059581 -27.28515625 55.63671875 C-29.0001526 53.48504982 -30.53470328 51.32644033 -32 49 C-32.66 48.01 -33.32 47.02 -34 46 C-37.27793225 36.10550079 -36.9677349 25.63804262 -33 16 C-31.26214356 13.34827078 -29.26727697 11.20381629 -27 9 C-26.195625 8.0925 -25.39125 7.185 -24.5625 6.25 C-21.56699265 3.61979842 -18.70852907 2.41598383 -15 1 C-14.38253906 0.64035156 -13.76507812 0.28070313 -13.12890625 -0.08984375 C-8.94201058 -1.87983768 -4.35060347 -0.90858639 0 0 Z M-23.70703125 10.8515625 C-24.88001565 12.51712948 -25.94705686 14.25606293 -27 16 C-27.50015625 16.45503906 -28.0003125 16.91007812 -28.515625 17.37890625 C-31.59188189 20.73850259 -32.20545164 25.62690436 -33 30 C-32.92421045 33.61462786 -32.92421045 33.61462786 -32 37 C-31.93167969 37.68449219 -31.86335938 38.36898437 -31.79296875 39.07421875 C-30.70024319 47.42264203 -25.19956001 52.75389296 -18.74609375 57.7421875 C-11.40882227 62.13710138 -3.23499236 62.15535714 5 61 C11.88842939 58.63386892 16.47882899 55.47895466 20 49 C20.65355469 48.38769531 21.30710938 47.77539062 21.98046875 47.14453125 C25.46428926 43.44507775 26.32119284 38.94464429 27 34 C26.58969787 28.576353 26.58969787 28.576353 24 24 C22.25187827 23.86801094 20.50118145 23.76944031 18.75 23.6875 C13.99591019 23.28670125 11.23461916 22.75633192 8 19 C7.29788106 17.34795544 6.63028587 15.68076231 6 14 C5.360625 13.360625 4.72125 12.72125 4.0625 12.0625 C1.6289493 9.6289493 0.50209458 7.07246619 -1 4 C-8.80039822 0.09980089 -18.27563117 4.96029559 -23.70703125 10.8515625 Z " fill="#32733c" transform="translate(43,8)"/>
<path d="M0 0 C2.475 0.495 2.475 0.495 5 1 C4.67 2.32 4.34 3.64 4 5 C2.68 5 1.36 5 0 5 C0 3.35 0 1.7 0 0 Z " fill="#32733c" transform="translate(38,51)"/>
<path d="M0 0 C1.65 0 3.3 0 5 0 C4.67 1.65 4.34 3.3 4 5 C2.68 4.67 1.36 4.34 0 4 C0 2.68 0 1.36 0 0 Z " fill="#32733c" transform="translate(38,38)"/>
<path d="M0 0 C1.32 0 2.64 0 4 0 C4 1.65 4 3.3 4 5 C2.35 4.67 0.7 4.34 -1 4 C-0.67 2.68 -0.34 1.36 0 0 Z " fill="#32733c" transform="translate(25,30)"/>
<path d="M0 0 C1.32 0 2.64 0 4 0 C4 1.65 4 3.3 4 5 C2.35 4.67 0.7 4.34 -1 4 C-0.67 2.68 -0.34 1.36 0 0 Z " fill="#32733c" transform="translate(63,17)"/>
<path d="M0 0 C1.98 0.495 1.98 0.495 4 1 C4 2.32 4 3.64 4 5 C2.35 4.67 0.7 4.34 -1 4 C-0.67 2.68 -0.34 1.36 0 0 Z " fill="#32733c" transform="translate(52,45)"/>
<path d="M0 0 C1.98 0.495 1.98 0.495 4 1 C4 2.32 4 3.64 4 5 C2.35 4.67 0.7 4.34 -1 4 C-0.67 2.68 -0.34 1.36 0 0 Z " fill="#32733c" transform="translate(25,45)"/>
<path d="M0 0 C1.98 0.495 1.98 0.495 4 1 C3.67 2.32 3.34 3.64 3 5 C1.68 5 0.36 5 -1 5 C-0.67 3.35 -0.34 1.7 0 0 Z " fill="#32733c" transform="translate(39,24)"/>
<path d="M0 0 C1.65 0.33 3.3 0.66 5 1 C4.67 2.32 4.34 3.64 4 5 C2.0625 4.625 2.0625 4.625 0 4 C-0.33 3.34 -0.66 2.68 -1 2 C-0.67 1.34 -0.34 0.68 0 0 Z " fill="#32733c" transform="translate(55,10)"/>
</svg>
