<?xml version="1.0" standalone="no"?>
<!DOCTYPE svg PUBLIC "-//W3C//DTD SVG 20010904//EN"
 "http://www.w3.org/TR/2001/REC-SVG-20010904/DTD/svg10.dtd">
<svg version="1.0" xmlns="http://www.w3.org/2000/svg"
 width="81.000000pt" height="81.000000pt" viewBox="0 0 81.000000 81.000000"
 preserveAspectRatio="xMidYMid meet">

<g transform="translate(0.000000,81.000000) scale(0.100000,-0.100000)"
fill="#5f0080" stroke="none">
<path d="M203 744 c-3 -9 1 -30 9 -47 34 -71 32 -89 -16 -199 -24 -57 -50
-125 -57 -151 -16 -64 -6 -144 25 -212 l25 -55 -40 0 c-64 0 -45 -18 24 -22
124 -6 507 3 507 12 0 6 -16 10 -35 10 -32 0 -35 2 -35 31 0 22 8 37 26 52 32
25 63 91 64 134 l0 32 -101 3 -101 3 -23 60 c-13 33 -38 94 -56 136 l-32 77
17 48 c10 27 19 60 19 74 l2 25 -108 3 c-92 2 -108 0 -114 -14z m197 -13 c0
-5 -9 -30 -20 -55 -19 -46 -20 -46 -67 -46 l-48 0 -18 49 c-9 27 -17 51 -17
55 0 3 38 6 85 6 47 0 85 -4 85 -9z m-26 -153 c3 -17 24 -70 45 -117 61 -135
61 -131 2 -131 l-51 0 0 -36 c0 -46 25 -98 61 -128 20 -17 29 -34 29 -55 l0
-31 -112 0 c-62 0 -118 4 -125 8 -7 4 -24 34 -39 65 -23 51 -26 68 -22 135 3
65 10 91 46 168 23 50 45 105 48 122 6 31 8 32 59 32 51 0 53 -1 59 -32z m299
-276 c10 -15 -23 -88 -53 -114 -25 -23 -39 -28 -85 -28 -46 0 -59 5 -88 30
-32 28 -63 101 -49 115 8 8 270 6 275 -3z m-93 -192 c0 -29 -2 -30 -45 -30
-43 0 -45 1 -45 30 0 29 2 30 45 30 43 0 45 -1 45 -30z"/>
</g>
</svg>
