<?xml version="1.0" encoding="UTF-8"?>
<svg version="1.1" xmlns="http://www.w3.org/2000/svg" width="80" height="80">
<path d="M0 0 C3.2296152 2.15728203 6.05052928 4.60572622 9 7.12890625 C11.85035156 9.29181078 11.85035156 9.29181078 15.10546875 8.90625 C17.68843675 8.09754747 19.92297698 7.1930121 22.3125 5.9375 C26.94786065 3.80710698 30.94752954 3.06154864 36 4 C39.56491459 5.7187981 41.42342556 6.78278729 43.125 10.375 C42.93983156 14.26353731 41.4431186 15.99191023 39 19 C36.41975074 20.63815336 33.71334666 21.75794049 30.875 22.875 C30.14667969 23.18179687 29.41835938 23.48859375 28.66796875 23.8046875 C23.36589704 26 23.36589704 26 21 26 C20.82984375 26.65484375 20.6596875 27.3096875 20.484375 27.984375 C19.10156258 33.19198774 17.62862 38.36358309 16 43.5 C15.690625 44.4796875 15.38125 45.459375 15.0625 46.46875 C13.96124459 49.09232907 13.36717274 50.43063271 11 52 C8.08203125 52.29296875 8.08203125 52.29296875 4.8125 52.1875 C3.72582031 52.16042969 2.63914062 52.13335937 1.51953125 52.10546875 C0.27236328 52.05326172 0.27236328 52.05326172 -1 52 C-1.21824777 45.9981863 -0.5056904 40.80766296 1 35 C0.071875 35.495 0.071875 35.495 -0.875 36 C-5.36161361 37.43571635 -9.34819977 37.93460827 -14 37 C-17.15481257 35.08014825 -19.52976695 32.7257744 -22 30 C-22.845625 29.113125 -23.69125 28.22625 -24.5625 27.3125 C-26 25 -26 25 -26.0625 22.8125 C-25 21 -25 21 -22.75 19.6875 C-19.09839538 18.77459884 -16.57776375 19.3688945 -13.125 20.75 C-9.64154977 21.15981767 -7.11947026 19.49974532 -4 18 C-5.92596576 14.49199093 -7.67717877 11.38559203 -10.25 8.3125 C-12 6 -12 6 -12 2 C-7.80317017 0.40120769 -4.4868555 -0.49300017 0 0 Z M-6 4 C-6.33 4.66 -6.66 5.32 -7 6 C-4.36 9.3 -1.72 12.6 1 16 C3.64 15.01 6.28 14.02 9 13 C3.51460283 6.70455717 3.51460283 6.70455717 -3.8125 3.75 C-4.534375 3.8325 -5.25625 3.915 -6 4 Z M24.765625 9.16015625 C23.7230957 9.62131836 22.68056641 10.08248047 21.60644531 10.55761719 C20.49881836 11.05422852 19.39119141 11.55083984 18.25 12.0625 C17.12432617 12.56040039 15.99865234 13.05830078 14.83886719 13.57128906 C9.92140098 15.75541775 5.02163235 17.96065534 0.1875 20.32421875 C-0.4921582 20.65478271 -1.17181641 20.98534668 -1.87207031 21.32592773 C-3.62450291 22.18824669 -5.36735447 23.0699611 -7.109375 23.953125 C-10.33595322 25.12166954 -11.77187258 24.99878814 -15 24 C-15.928125 23.814375 -16.85625 23.62875 -17.8125 23.4375 C-18.534375 23.293125 -19.25625 23.14875 -20 23 C-20 26.62976409 -18.73297561 27.87018699 -16.484375 30.59765625 C-14.71082623 32.27319311 -13.30359046 33.17339286 -11 34 C-8.4893245 33.88745817 -8.4893245 33.88745817 -5.9375 33.25 C-4.65166016 32.97929688 -4.65166016 32.97929688 -3.33984375 32.703125 C-0.76330908 32.05293543 -0.76330908 32.05293543 2 30 C2.36162029 28.67405895 2.69728039 27.34061543 3 26 C3.66 25.67 4.32 25.34 5 25 C4.855625 26.14597656 4.71125 27.29195312 4.5625 28.47265625 C4.37477964 30.00257715 4.18729203 31.53252661 4 33.0625 C3.90460937 33.81466797 3.80921875 34.56683594 3.7109375 35.34179688 C3.15428098 39.93421317 2.90170972 44.3742135 3 49 C4.98 49 6.96 49 9 49 C12.50615613 41.59151836 15.03500431 34.02432081 17.44335938 26.20117188 C17.73146484 25.30076172 18.01957031 24.40035156 18.31640625 23.47265625 C18.69454468 22.25461304 18.69454468 22.25461304 19.08032227 21.01196289 C20 19 20 19 23 17 C23 18.32 23 19.64 23 21 C28.56587847 19.36734232 33.52778474 17.78418214 38 14 C38 12.68 38 11.36 38 10 C33.02992898 6.23886518 30.22385623 6.73307529 24.765625 9.16015625 Z " fill="#32733c" transform="translate(32,8)"/>
<path d="M0 0 C22.44 0 44.88 0 68 0 C68 0.99 68 1.98 68 3 C45.56 3 23.12 3 0 3 C0 2.01 0 1.02 0 0 Z " fill="#32733c" transform="translate(5,69)"/>
</svg>
