<?xml version="1.0" encoding="UTF-8"?>
<svg version="1.1" xmlns="http://www.w3.org/2000/svg" width="81" height="81">
<path d="M0 0 C6.34308638 2.65524546 10.11794699 7.03962 12.9609375 13.1953125 C15.35462232 19.55273348 15.99149633 27.06453618 13.8984375 33.58203125 C12.57137642 36.31213018 11.49415922 38.52381058 9.03125 40.359375 C6.83939512 43.23937037 7.63979673 46.39853806 8 49.8125 C8.06123047 50.51439453 8.12246094 51.21628906 8.18554688 51.93945312 C8.33852624 53.6692967 8.51112602 55.39738497 8.6875 57.125 C7.3675 57.125 6.0475 57.125 4.6875 57.125 C4.6359375 56.25617187 4.584375 55.38734375 4.53125 54.4921875 C4.05791705 47.7907726 4.05791705 47.7907726 0.9140625 42.1015625 C-1.11330138 40.67713211 -3.19175135 39.40418172 -5.3125 38.125 C-11.07898603 32.05501471 -11.81958982 25.55892994 -11.69921875 17.45703125 C-10.96573059 11.13717873 -8.04609527 6.45451865 -4.3125 1.4375 C-2.3125 0.125 -2.3125 0.125 0 0 Z M-1.3125 4.125 C-6.30860474 10.53026248 -9.0337758 15.75820072 -8.3125 24.125 C-6.983986 29.20632361 -5.00940445 33.31606815 -1.3125 37.125 C0.0075 37.785 1.3275 38.445 2.6875 39.125 C1.3675 30.215 0.0475 21.305 -1.3125 12.125 C0.0075 12.125 1.3275 12.125 2.6875 12.125 C2.73648437 12.99640625 2.78546875 13.8678125 2.8359375 14.765625 C3.33172493 22.66403157 4.22048989 30.34842213 5.6875 38.125 C9.09173898 34.94038934 10.52907881 33.02345723 10.92578125 28.26953125 C11.07972001 21.35849115 11.07529786 15.71754005 6.6875 10.125 C4.50197299 7.90606974 2.24933146 5.90012731 -0.3125 4.125 C-0.6425 4.125 -0.9725 4.125 -1.3125 4.125 Z " fill="#5f0080" transform="translate(26.3125,6.875)"/>
<path d="M0 0 C0.53772852 10.47574827 -0.29816916 18.28953993 -7.3125 26.4375 C-11.74176616 31.25326408 -16.25506554 34.18598981 -22.875 34.6875 C-24.916875 34.8421875 -24.916875 34.8421875 -27 35 C-27.99 38.96 -28.98 42.92 -30 47 C-30.99 47 -31.98 47 -33 47 C-33.08521537 42.22793944 -32.8392267 37.86209788 -32.14453125 33.12890625 C-31.97830452 30.68043143 -32.27610126 28.48978478 -32.625 26.0625 C-33.33741092 19.77595502 -32.07883172 15.01644912 -28.484375 9.80078125 C-24.29188057 4.69235898 -20.00260238 1.2639797 -13.625 -0.75 C-3.44 -1.72 -3.44 -1.72 0 0 Z M-24.375 10.4375 C-28.87537505 16.22194945 -29.28086622 20.83791142 -29 28 C-27.08068552 25.62005005 -25.1770491 23.23086217 -23.31640625 20.8046875 C-22.71699219 20.02351563 -22.11757813 19.24234375 -21.5 18.4375 C-20.9328125 17.69371094 -20.365625 16.94992188 -19.78125 16.18359375 C-17.96590192 13.95819995 -16.13138941 11.92611215 -14 10 C-13.34 10 -12.68 10 -12 10 C-13.39319782 13.11055552 -15.05599492 15.32640504 -17.375 17.8125 C-22.78811423 23.66825118 -22.78811423 23.66825118 -25 31 C-18.66326595 30.49306128 -14.65595728 28.97289729 -10.36328125 24.16796875 C-4.93053975 17.2882501 -3.65454269 11.63643278 -4 3 C-12.53075464 2.28910378 -18.54397023 3.971128 -24.375 10.4375 Z " fill="#5f0080" transform="translate(73,26)"/>
<path d="M0 0 C5.38003616 0.47762465 8.96074582 1.33381552 13.14453125 5.01953125 C16.69718355 9.99324447 16.72328833 15.10953102 16.14453125 21.01953125 C15.81453125 21.34953125 15.48453125 21.67953125 15.14453125 22.01953125 C9.97431644 21.9768022 5.17791157 21.45976741 1.14453125 18.01953125 C-2.31520173 12.21212232 -3.10900033 7.73811821 -2.85546875 1.01953125 C-1.85546875 0.01953125 -1.85546875 0.01953125 0 0 Z M1.14453125 4.01953125 C1.51966941 9.55281908 1.80020469 13.14486162 6.14453125 17.01953125 C9.28316829 17.90547123 9.28316829 17.90547123 12.14453125 18.01953125 C12.59056282 13.55921552 12.44288045 11.49337998 10.01953125 7.64453125 C6.89225218 4.78918949 5.306637 4.21311756 1.14453125 4.01953125 Z " fill="#5f0080" transform="translate(12.85546875,49.98046875)"/>
</svg>
