<?xml version="1.0" standalone="no"?>
<!DOCTYPE svg PUBLIC "-//W3C//DTD SVG 20010904//EN"
 "http://www.w3.org/TR/2001/REC-SVG-20010904/DTD/svg10.dtd">
<svg version="1.0" xmlns="http://www.w3.org/2000/svg"
 width="81.000000pt" height="81.000000pt" viewBox="0 0 81.000000 81.000000"
 preserveAspectRatio="xMidYMid meet">

<g transform="translate(0.000000,81.000000) scale(0.100000,-0.100000)"
fill="#5f0080" stroke="none">
<path d="M200 662 c0 -84 -2 -90 -32 -132 l-33 -44 -3 -218 -3 -218 136 0 136
0 -3 213 -3 213 -35 54 c-31 49 -35 63 -39 137 l-3 83 -59 0 -59 0 0 -88z
m100 -10 c0 -71 3 -82 34 -131 41 -64 49 -114 44 -311 l-3 -135 -112 -3 -113
-3 0 183 c0 196 -1 186 61 298 14 26 19 54 19 108 l0 72 35 0 35 0 0 -78z"/>
<path d="M486 592 c-10 -17 -26 -140 -26 -207 0 -84 22 -129 75 -151 l35 -14
0 -75 0 -75 -45 0 c-25 0 -45 -4 -45 -10 0 -6 40 -10 100 -10 99 0 141 16 58
22 l-43 3 -3 73 c-3 71 -2 72 25 83 77 29 97 81 82 221 -15 153 -12 148 -118
148 -49 0 -92 -4 -95 -8z m183 -97 c20 -134 26 -125 -83 -125 -52 0 -97 4
-101 10 -3 5 0 50 6 100 l12 90 77 0 78 0 11 -75z m11 -161 c0 -29 -65 -84
-99 -84 -35 0 -85 41 -96 78 -6 22 -5 22 94 22 86 0 101 -2 101 -16z"/>
</g>
</svg>
